<svg width="3240" height="1823" viewBox="0 0 3240 1823" fill="none" xmlns="http://www.w3.org/2000/svg">
<path fill-rule="evenodd" clip-rule="evenodd" d="M199.125 529.875V344.25H0V340.875H199.125V155.25H0V151.875H199.125V0H202.5V151.875H388.125V0H391.5V151.875H577.125V0H580.5V151.875H766.125V0H769.5V151.875H955.125V0H958.5V151.875H1144.12V0H1147.5V151.875H1333.12V0H1336.5V151.875H1522.12V0H1525.5V151.875H1711.12V0H1714.5V151.875H1900.12V0H1903.5V151.875H2089.12V0H2092.5V151.875H2278.12V0H2281.5V151.875H2467.12V0H2470.5V151.875H2656.12V0H2659.5V151.875H2845.12V0H2848.5V151.875H3034.12V0H3037.5V151.875H3240V155.25H3037.5V340.875H3240V344.25H3037.5V529.875H3240V533.25H3037.5V718.875H3240V722.25H3037.5V907.875H3240V911.25H3037.5V1096.88H3240V1100.25H3037.5V1285.88H3240V1289.25H3037.5V1474.88H3240V1478.25H3037.5V1663.88H3240V1667.25H3037.5V1822.5H3034.12V1667.25H2848.5V1822.5H2845.12V1667.25H2659.5V1822.5H2656.12V1667.25H2470.5V1822.5H2467.12V1667.25H2281.5V1822.5H2278.12V1667.25H2092.5V1822.5H2089.12V1667.25H1903.5V1822.5H1900.12V1667.25H1714.5V1822.5H1711.12V1667.25H1525.5V1822.5H1522.12V1667.25H1336.5V1822.5H1333.12V1667.25H1147.5V1822.5H1144.12V1667.25H958.5V1822.5H955.125V1667.25H769.5V1822.5H766.125V1667.25H580.5V1822.5H577.125V1667.25H391.5V1822.5H388.125V1667.25H202.5V1822.5H199.125V1667.25H0V1663.88H199.125V1478.25H0V1474.88H199.125V1289.25H0V1285.88H199.125V1100.25H0V1096.88H199.125V911.25H0V907.875H199.125V722.25H0V718.875H199.125V533.25H0V529.875H199.125ZM202.5 155.25V340.875H388.125V155.25H202.5ZM202.5 1663.88H388.125V1478.25H202.5V1663.88ZM391.5 1663.88H577.125V1478.25H391.5V1663.88ZM580.5 1663.88H766.125V1478.25H580.5V1663.88ZM769.5 1663.88H955.125V1478.25H769.5V1663.88ZM958.5 1663.88H1144.12V1478.25H958.5V1663.88ZM1147.5 1663.88H1333.12V1478.25H1147.5V1663.88ZM1336.5 1663.88H1522.12V1478.25H1336.5V1663.88ZM1525.5 1663.88H1711.12V1478.25H1525.5V1663.88ZM1714.5 1663.88H1900.12V1478.25H1714.5V1663.88ZM1903.5 1663.88H2089.12V1478.25H1903.5V1663.88ZM2092.5 1663.88H2278.12V1478.25H2092.5V1663.88ZM2281.5 1663.88H2467.12V1478.25H2281.5V1663.88ZM2470.5 1663.88H2656.12V1478.25H2470.5V1663.88ZM2659.5 1663.88H2845.12V1478.25H2659.5V1663.88ZM2848.5 1663.88H3034.12V1478.25H2848.5V1663.88ZM3034.12 1289.25V1474.88H2848.5V1289.25H3034.12ZM2845.12 1289.25V1474.88H2659.5V1289.25H2845.12ZM2656.12 1289.25V1474.88H2470.5V1289.25H2656.12ZM2467.12 1289.25V1474.88H2281.5V1289.25H2467.12ZM2278.12 1289.25V1474.88H2092.5V1289.25H2278.12ZM2089.12 1289.25V1474.88H1903.5V1289.25H2089.12ZM1900.12 1289.25V1474.88H1714.5V1289.25H1900.12ZM1711.12 1289.25V1474.88H1525.5V1289.25H1711.12ZM1522.12 1289.25V1474.88H1336.5V1289.25H1522.12ZM1333.12 1289.25V1474.88H1147.5V1289.25H1333.12ZM1144.12 1289.25V1474.88H958.5V1289.25H1144.12ZM955.125 1289.25V1474.88H769.5V1289.25H955.125ZM766.125 1289.25V1474.88H580.5V1289.25H766.125ZM577.125 1289.25V1474.88H391.5V1289.25H577.125ZM388.125 1289.25V1474.88H202.5V1289.25H388.125ZM202.5 1285.88H388.125V1100.25H202.5V1285.88ZM391.5 1285.88H577.125V1100.25H391.5V1285.88ZM580.5 1285.88H766.125V1100.25H580.5V1285.88ZM769.5 1285.88H955.125V1100.25H769.5V1285.88ZM958.5 1285.88H1144.12V1100.25H958.5V1285.88ZM1147.5 1285.88H1333.12V1100.25H1147.5V1285.88ZM1336.5 1285.88H1522.12V1100.25H1336.5V1285.88ZM1525.5 1285.88H1711.12V1100.25H1525.5V1285.88ZM1714.5 1285.88H1900.12V1100.25H1714.5V1285.88ZM1903.5 1285.88H2089.12V1100.25H1903.5V1285.88ZM2092.5 1285.88H2278.12V1100.25H2092.5V1285.88ZM2281.5 1285.88H2467.12V1100.25H2281.5V1285.88ZM2470.5 1285.88H2656.12V1100.25H2470.5V1285.88ZM2659.5 1285.88H2845.12V1100.25H2659.5V1285.88ZM2848.5 1285.88H3034.12V1100.25H2848.5V1285.88ZM3034.12 911.25V1096.88H2848.5V911.25H3034.12ZM2845.12 911.25V1096.88H2659.5V911.25H2845.12ZM2656.12 911.25V1096.88H2470.5V911.25H2656.12ZM2467.12 911.25V1096.88H2281.5V911.25H2467.12ZM2278.12 911.25V1096.88H2092.5V911.25H2278.12ZM2089.12 911.25V1096.88H1903.5V911.25H2089.12ZM1900.12 911.25V1096.88H1714.5V911.25H1900.12ZM1711.12 911.25V1096.88H1525.5V911.25H1711.12ZM1522.12 911.25V1096.88H1336.5V911.25H1522.12ZM1333.12 911.25V1096.88H1147.5V911.25H1333.12ZM1144.12 911.25V1096.88H958.5V911.25H1144.12ZM955.125 911.25V1096.88H769.5V911.25H955.125ZM766.125 911.25V1096.88H580.5V911.25H766.125ZM577.125 911.25V1096.88H391.5V911.25H577.125ZM388.125 911.25V1096.88H202.5V911.25H388.125ZM202.5 907.875H388.125V722.25H202.5V907.875ZM391.5 907.875H577.125V722.25H391.5V907.875ZM580.5 907.875H766.125V722.25H580.5V907.875ZM769.5 907.875H955.125V722.25H769.5V907.875ZM958.5 907.875H1144.12V722.25H958.5V907.875ZM1147.5 907.875H1333.12V722.25H1147.5V907.875ZM1336.5 907.875H1522.12V722.25H1336.5V907.875ZM1525.5 907.875H1711.12V722.25H1525.5V907.875ZM1714.5 907.875H1900.12V722.25H1714.5V907.875ZM1903.5 907.875H2089.12V722.25H1903.5V907.875ZM2092.5 907.875H2278.12V722.25H2092.5V907.875ZM2281.5 907.875H2467.12V722.25H2281.5V907.875ZM2470.5 907.875H2656.12V722.25H2470.5V907.875ZM2659.5 907.875H2845.12V722.25H2659.5V907.875ZM2848.5 907.875H3034.12V722.25H2848.5V907.875ZM3034.12 533.25V718.875H2848.5V533.25H3034.12ZM2845.12 533.25V718.875H2659.5V533.25H2845.12ZM2656.12 533.25V718.875H2470.5V533.25H2656.12ZM2467.12 533.25V718.875H2281.5V533.25H2467.12ZM2278.12 533.25V718.875H2092.5V533.25H2278.12ZM2089.12 533.25V718.875H1903.5V533.25H2089.12ZM1900.12 533.25V718.875H1714.5V533.25H1900.12ZM1711.12 533.25V718.875H1525.5V533.25H1711.12ZM1522.12 533.25V718.875H1336.5V533.25H1522.12ZM1333.12 533.25V718.875H1147.5V533.25H1333.12ZM1144.12 533.25V718.875H958.5V533.25H1144.12ZM955.125 533.25V718.875H769.5V533.25H955.125ZM766.125 533.25V718.875H580.5V533.25H766.125ZM577.125 533.25V718.875H391.5V533.25H577.125ZM388.125 533.25V718.875H202.5V533.25H388.125ZM202.5 529.875H388.125V344.25H202.5V529.875ZM391.5 529.875H577.125V344.25H391.5V529.875ZM580.5 529.875H766.125V344.25H580.5V529.875ZM769.5 529.875H955.125V344.25H769.5V529.875ZM958.5 529.875H1144.12V344.25H958.5V529.875ZM1147.5 529.875H1333.12V344.25H1147.5V529.875ZM1336.5 529.875H1522.12V344.25H1336.5V529.875ZM1525.5 529.875H1711.12V344.25H1525.5V529.875ZM1714.5 529.875H1900.12V344.25H1714.5V529.875ZM1903.5 529.875H2089.12V344.25H1903.5V529.875ZM2092.5 529.875H2278.12V344.25H2092.5V529.875ZM2281.5 529.875H2467.12V344.25H2281.5V529.875ZM2470.5 529.875H2656.12V344.25H2470.5V529.875ZM2659.5 529.875H2845.12V344.25H2659.5V529.875ZM2848.5 529.875H3034.12V344.25H2848.5V529.875ZM3034.12 155.25V340.875H2848.5V155.25H3034.12ZM2845.12 155.25V340.875H2659.5V155.25H2845.12ZM2656.12 155.25V340.875H2470.5V155.25H2656.12ZM2467.12 155.25V340.875H2281.5V155.25H2467.12ZM2278.12 155.25V340.875H2092.5V155.25H2278.12ZM2089.12 155.25V340.875H1903.5V155.25H2089.12ZM1900.12 155.25V340.875H1714.5V155.25H1900.12ZM1711.12 155.25V340.875H1525.5V155.25H1711.12ZM1522.12 155.25V340.875H1336.5V155.25H1522.12ZM1333.12 155.25V340.875H1147.5V155.25H1333.12ZM1144.12 155.25V340.875H958.5V155.25H1144.12ZM955.125 155.25V340.875H769.5V155.25H955.125ZM766.125 155.25V340.875H580.5V155.25H766.125ZM577.125 155.25V340.875H391.5V155.25H577.125Z" fill="url(#paint0_radial_8_2)"/>
<defs>
<radialGradient id="paint0_radial_8_2" cx="0" cy="0" r="1" gradientUnits="userSpaceOnUse" gradientTransform="translate(1620 911.25) rotate(90) scale(911.25 1620)">
<stop stop-color="white" stop-opacity="0.15"/>
<stop offset="1" stop-color="white" stop-opacity="0.03"/>
</radialGradient>
</defs>
</svg>
