<svg width="119" height="120" viewBox="0 0 119 120" fill="none" xmlns="http://www.w3.org/2000/svg">
<path d="M22.0227 8.55853L19.65 7L17.2443 8.50758C13.6851 10.7379 10.7656 13.8487 8.7633 17.5345C6.76635 21.2105 5.74767 25.3369 5.80186 29.5171V70.5958C5.74895 74.7762 6.76739 78.9032 8.76387 82.5804C10.7606 86.258 13.6695 89.3649 17.2156 91.597L45.8781 110.114C49.8828 112.777 54.5857 114.2 59.3996 114.2C64.2136 114.2 68.9167 112.777 72.9215 110.114L101.572 91.5978C105.121 89.3689 108.033 86.2636 110.033 82.5852C112.029 78.9112 113.049 74.7873 112.997 70.6091V29.5171C113.052 25.3353 112.032 21.2072 110.033 17.5305C108.028 13.8441 105.105 10.7338 101.542 8.5056L99.1374 7.00127L96.767 8.5588L59.4328 33.0891L59.3996 33.0673L59.3664 33.0892L22.0227 8.55853Z" stroke="url(#paint0_linear_3_145)" stroke-width="10.4"/>
<defs>
<linearGradient id="paint0_linear_3_145" x1="111.8" y1="3" x2="5.79981" y2="114.2" gradientUnits="userSpaceOnUse">
<stop offset="0.54" stop-color="white"/>
<stop offset="1" stop-color="white" stop-opacity="0.4"/>
</linearGradient>
</defs>
</svg>
