<svg width="398" height="120" viewBox="0 0 398 120" fill="none" xmlns="http://www.w3.org/2000/svg">
<path d="M3.0272 21.8817H12.6016L20.8384 52.576H22.1056L30.3424 21.8817H39.9168L29.92 56.8H13.024L3.0272 21.8817ZM71.1958 51.7312C70.2572 53.9371 68.943 55.5094 67.2534 56.448C65.5638 57.3398 63.5926 57.7856 61.3398 57.7856C59.2278 57.7856 57.2332 57.3867 55.3558 56.5888C53.5254 55.791 51.9062 54.6176 50.4982 53.0688C49.0902 51.52 47.9638 49.6427 47.119 47.4369C46.3212 45.231 45.9222 42.7201 45.9222 39.9041V38.7777C45.9222 36.0086 46.3212 33.5211 47.119 31.3153C47.9169 29.1094 48.9964 27.2321 50.3574 25.6833C51.7185 24.1345 53.2908 22.9611 55.0742 22.1633C56.9046 21.3185 58.8524 20.8961 60.9174 20.8961C63.4049 20.8961 65.3996 21.3185 66.9014 22.1633C68.4502 23.0081 69.6705 24.3222 70.5622 26.1057H71.8294V21.8817H80.6998V46.2401C80.6998 47.6481 81.3334 48.3521 82.6006 48.3521H83.9382V56.8H77.8838C76.2881 56.8 74.974 56.3307 73.9414 55.392C72.9558 54.4534 72.463 53.2331 72.463 51.7312H71.1958ZM63.311 49.3376C65.8924 49.3376 67.9574 48.4929 69.5062 46.8033C71.055 45.0667 71.8294 42.7201 71.8294 39.7633V38.9185C71.8294 35.9617 71.055 33.6385 69.5062 31.9489C67.9574 30.2123 65.8924 29.3441 63.311 29.3441C60.7297 29.3441 58.6646 30.2123 57.1158 31.9489C55.567 33.6385 54.7926 35.9617 54.7926 38.9185V39.7633C54.7926 42.7201 55.567 45.0667 57.1158 46.8033C58.6646 48.4929 60.7297 49.3376 63.311 49.3376ZM100.574 56.8H91.7037V21.8817H100.574V27.0913H101.841C102.639 25.1201 103.93 23.5947 105.713 22.5153C107.497 21.4358 109.585 20.8961 111.979 20.8961C113.668 20.8961 115.241 21.1777 116.696 21.7409C118.198 22.2571 119.512 23.0785 120.638 24.2049C121.764 25.3313 122.633 26.7627 123.243 28.4993C123.9 30.2358 124.228 32.3009 124.228 34.6945V56.8H115.358V36.9473C115.358 34.4598 114.748 32.5121 113.528 31.1041C112.354 29.6491 110.641 28.9217 108.388 28.9217C105.76 28.9217 103.789 29.8134 102.475 31.5969C101.208 33.3334 100.574 35.6801 100.574 38.6369V56.8ZM159.872 51.7312H158.605C158.23 52.5291 157.76 53.3035 157.197 54.0544C156.681 54.7584 155.977 55.392 155.085 55.9552C154.24 56.5184 153.208 56.9643 151.988 57.2928C150.814 57.6214 149.383 57.7856 147.693 57.7856C145.534 57.7856 143.516 57.4102 141.639 56.6592C139.808 55.8614 138.189 54.7115 136.781 53.2096C135.42 51.6608 134.341 49.7835 133.543 47.5776C132.792 45.3718 132.416 42.8374 132.416 39.9745V38.7073C132.416 35.8913 132.815 33.3803 133.613 31.1745C134.458 28.9686 135.584 27.1147 136.992 25.6129C138.447 24.0641 140.113 22.8907 141.991 22.0929C143.915 21.295 145.933 20.8961 148.045 20.8961C150.861 20.8961 153.09 21.4358 154.733 22.5153C156.376 23.5478 157.666 25.0262 158.605 26.9505H159.872V7.52006H168.743V56.8H159.872V51.7312ZM150.58 49.3376C153.349 49.3376 155.578 48.4694 157.268 46.7329C159.004 44.9494 159.872 42.6262 159.872 39.7633V38.9185C159.872 36.0555 159.004 33.7558 157.268 32.0193C155.578 30.2358 153.349 29.3441 150.58 29.3441C147.81 29.3441 145.558 30.2123 143.821 31.9489C142.132 33.6385 141.287 35.9617 141.287 38.9185V39.7633C141.287 42.7201 142.132 45.0667 143.821 46.8033C145.558 48.4929 147.81 49.3376 150.58 49.3376ZM185.731 42.2273C185.778 43.2598 186.012 44.2219 186.435 45.1137C186.904 45.9585 187.514 46.7094 188.265 47.3665C189.063 47.9766 189.955 48.4694 190.94 48.8448C191.973 49.1734 193.052 49.3376 194.179 49.3376C196.384 49.3376 198.074 48.9622 199.247 48.2112C200.421 47.4134 201.266 46.4747 201.782 45.3953L209.385 49.6192C208.963 50.511 208.376 51.4496 207.625 52.4352C206.874 53.3739 205.888 54.2422 204.668 55.04C203.495 55.8379 202.04 56.495 200.303 57.0112C198.614 57.5275 196.619 57.7856 194.319 57.7856C191.691 57.7856 189.298 57.3632 187.139 56.5184C184.98 55.6736 183.102 54.4534 181.507 52.8576C179.958 51.2619 178.738 49.3142 177.846 47.0144C177.001 44.7147 176.579 42.1099 176.579 39.2001V38.7777C176.579 36.1025 177.024 33.6619 177.916 31.4561C178.855 29.2502 180.122 27.3729 181.718 25.8241C183.314 24.2753 185.167 23.0785 187.279 22.2337C189.438 21.3419 191.738 20.8961 194.179 20.8961C197.182 20.8961 199.764 21.4358 201.923 22.5153C204.082 23.5478 205.865 24.8854 207.273 26.5281C208.681 28.1238 209.714 29.9073 210.371 31.8785C211.028 33.8027 211.356 35.6801 211.356 37.5105V42.2273H185.731ZM194.108 28.9217C191.855 28.9217 190.025 29.5083 188.617 30.6817C187.209 31.8081 186.294 33.1222 185.871 34.6241H202.345C202.063 32.9814 201.172 31.6203 199.67 30.5409C198.215 29.4614 196.361 28.9217 194.108 28.9217ZM219.333 21.8817H234.117V26.9505H235.384C236.041 25.0262 237.144 23.5478 238.693 22.5153C240.289 21.4358 242.189 20.8961 244.395 20.8961C247.868 20.8961 250.661 21.999 252.773 24.2049C254.885 26.3638 255.941 29.6726 255.941 34.1313V35.6801L246.789 36.5249V35.5393C246.789 33.615 246.296 32.0897 245.31 30.9633C244.325 29.7899 242.846 29.2033 240.875 29.2033C238.904 29.2033 237.355 29.8838 236.229 31.2449C235.102 32.6059 234.539 34.5537 234.539 37.0881V48.3521H242.565V56.8H218.488V48.3521H225.669V30.3297H219.333V21.8817Z" fill="url(#paint0_linear_3_157)"/>
<path d="M114.63 108.698C114.63 109.636 114.443 110.528 114.067 111.373C113.739 112.171 113.269 112.875 112.659 113.485C112.049 114.048 111.321 114.494 110.477 114.822C109.679 115.198 108.834 115.386 107.942 115.386C107.004 115.386 106.135 115.198 105.338 114.822C104.54 114.494 103.836 114.048 103.225 113.485C102.615 112.875 102.123 112.171 101.747 111.373C101.419 110.528 101.254 109.636 101.254 108.698C101.254 107.759 101.419 106.891 101.747 106.093C102.123 105.248 102.615 104.544 103.225 103.981C103.836 103.371 104.54 102.901 105.338 102.573C106.135 102.197 107.004 102.01 107.942 102.01C108.834 102.01 109.679 102.197 110.477 102.573C111.321 102.901 112.049 103.371 112.659 103.981C113.269 104.544 113.739 105.248 114.067 106.093C114.443 106.891 114.63 107.759 114.63 108.698ZM160.06 109.331H158.793C158.417 110.129 157.948 110.903 157.385 111.654C156.868 112.358 156.164 112.992 155.273 113.555C154.428 114.118 153.395 114.564 152.175 114.893C151.002 115.221 149.57 115.386 147.881 115.386C145.722 115.386 143.703 115.01 141.826 114.259C139.996 113.461 138.377 112.311 136.969 110.81C135.607 109.261 134.528 107.383 133.73 105.178C132.979 102.972 132.604 100.437 132.604 97.5744V96.3072C132.604 93.4912 133.003 90.9803 133.801 88.7744C134.645 86.5686 135.772 84.7147 137.18 83.2128C138.635 81.664 140.301 80.4907 142.178 79.6928C144.102 78.895 146.121 78.496 148.233 78.496C151.049 78.496 153.278 79.0358 154.921 80.1152C156.563 81.1478 157.854 82.6262 158.793 84.5504H160.06V65.12H168.93V114.4H160.06V109.331ZM150.767 106.938C153.536 106.938 155.765 106.069 157.455 104.333C159.191 102.549 160.06 100.226 160.06 97.3632V96.5184C160.06 93.6555 159.191 91.3558 157.455 89.6192C155.765 87.8358 153.536 86.944 150.767 86.944C147.998 86.944 145.745 87.8123 144.009 89.5488C142.319 91.2384 141.474 93.5616 141.474 96.5184V97.3632C141.474 100.32 142.319 102.667 144.009 104.403C145.745 106.093 147.998 106.938 150.767 106.938ZM185.918 99.8272C185.965 100.86 186.2 101.822 186.622 102.714C187.091 103.558 187.701 104.309 188.452 104.966C189.25 105.577 190.142 106.069 191.128 106.445C192.16 106.773 193.24 106.938 194.366 106.938C196.572 106.938 198.261 106.562 199.435 105.811C200.608 105.013 201.453 104.075 201.969 102.995L209.572 107.219C209.15 108.111 208.563 109.05 207.812 110.035C207.061 110.974 206.076 111.842 204.856 112.64C203.682 113.438 202.227 114.095 200.491 114.611C198.801 115.127 196.807 115.386 194.507 115.386C191.879 115.386 189.485 114.963 187.326 114.118C185.167 113.274 183.29 112.053 181.694 110.458C180.145 108.862 178.925 106.914 178.033 104.614C177.188 102.315 176.766 99.7099 176.766 96.8V96.3776C176.766 93.7024 177.212 91.2619 178.104 89.056C179.042 86.8502 180.309 84.9728 181.905 83.424C183.501 81.8752 185.355 80.6784 187.467 79.8336C189.626 78.9419 191.925 78.496 194.366 78.496C197.37 78.496 199.951 79.0358 202.11 80.1152C204.269 81.1478 206.052 82.4854 207.46 84.128C208.868 85.7238 209.901 87.5072 210.558 89.4784C211.215 91.4027 211.544 93.28 211.544 95.1104V99.8272H185.918ZM194.296 86.5216C192.043 86.5216 190.212 87.1083 188.804 88.2816C187.396 89.408 186.481 90.7222 186.059 92.224H202.532C202.251 90.5814 201.359 89.2203 199.857 88.1408C198.402 87.0614 196.548 86.5216 194.296 86.5216ZM218.746 79.4816H228.32L236.557 110.176H237.824L246.061 79.4816H255.635L245.639 114.4H228.743L218.746 79.4816Z" fill="url(#paint1_linear_3_157)"/>
<path d="M301.023 8.55853L298.65 7L296.244 8.50758C292.685 10.7379 289.766 13.8487 287.763 17.5345C285.766 21.2105 284.748 25.3369 284.802 29.5171V70.5958C284.749 74.7762 285.767 78.9032 287.764 82.5804C289.761 86.258 292.669 89.3649 296.216 91.597L324.878 110.114C328.883 112.777 333.586 114.2 338.4 114.2C343.214 114.2 347.917 112.777 351.922 110.114L380.572 91.5978C384.121 89.3689 387.033 86.2636 389.033 82.5852C391.029 78.9112 392.049 74.7873 391.997 70.6091V29.5171C392.052 25.3353 391.032 21.2072 389.033 17.5305C387.028 13.8441 384.105 10.7338 380.542 8.5056L378.137 7.00127L375.767 8.5588L338.433 33.0891L338.4 33.0673L338.366 33.0892L301.023 8.55853Z" stroke="url(#paint2_linear_3_157)" stroke-width="10.4"/>
<defs>
<linearGradient id="paint0_linear_3_157" x1="129.5" y1="7.80005" x2="129.5" y2="56.8" gradientUnits="userSpaceOnUse">
<stop offset="0.54" stop-color="white"/>
<stop offset="1" stop-color="white" stop-opacity="0.4"/>
</linearGradient>
<linearGradient id="paint1_linear_3_157" x1="172.9" y1="65.4" x2="172.9" y2="114.4" gradientUnits="userSpaceOnUse">
<stop offset="0.54" stop-color="white"/>
<stop offset="1" stop-color="white" stop-opacity="0.4"/>
</linearGradient>
<linearGradient id="paint2_linear_3_157" x1="390.8" y1="3" x2="284.8" y2="114.2" gradientUnits="userSpaceOnUse">
<stop offset="0.54" stop-color="white"/>
<stop offset="1" stop-color="white" stop-opacity="0.4"/>
</linearGradient>
</defs>
</svg>
